<?xml version="1.0" encoding="utf-8"?>
<!-- Generator: Adobe Illustrator 24.2.3, SVG Export Plug-In . SVG Version: 6.00 Build 0)  -->
<svg version="1.1" id="Layer_1" xmlns="http://www.w3.org/2000/svg" xmlns:xlink="http://www.w3.org/1999/xlink" x="0px" y="0px"
	 viewBox="0 0 58.36 65.51" style="enable-background:new 0 0 58.36 65.51;" xml:space="preserve">
<style type="text/css">
	.st0{fill:#999999;}
	.st1{fill:none;stroke:#000000;stroke-width:0.5;stroke-linecap:square;stroke-miterlimit:10;}
	.st2{fill:#010101;}
	.st3{font-family:'Arial-ItalicMT';}
	.st4{font-size:10px;}
	.st5{fill:#FFFFFF;stroke:#000000;stroke-width:0.5;stroke-linecap:square;stroke-miterlimit:10;}
	.st6{font-family:'ArialMT';}
	.st7{font-size:8px;}
	.st8{fill:#999999;stroke:#000000;stroke-width:0.5;stroke-linecap:square;stroke-miterlimit:10;}
</style>
<g>
	<line class="st0" x1="17.05" y1="41.28" x2="17.05" y2="5.28"/>
	<g>
		<line class="st1" x1="17.05" y1="41.28" x2="17.05" y2="7.07"/>
		<g>
			<polygon points="18.3,7.44 17.05,5.28 15.81,7.44 			"/>
		</g>
	</g>
</g>
<g>
	<line class="st0" x1="17.05" y1="41.28" x2="53.05" y2="41.28"/>
	<g>
		<line class="st1" x1="17.05" y1="41.28" x2="51.26" y2="41.28"/>
		<g>
			<polygon points="50.9,42.52 53.05,41.28 50.9,40.03 			"/>
		</g>
	</g>
</g>
<text transform="matrix(1 0 0 1 1.3038 63.4605)" class="st2 st3 st4">x</text>
<text transform="matrix(1 0 0 1 46.9728 50.1588)" class="st2 st3 st4">y</text>
<g>
	<line class="st0" x1="17.05" y1="41.28" x2="2.83" y2="55.5"/>
	<g>
		<line class="st1" x1="17.05" y1="41.28" x2="4.1" y2="54.23"/>
		<g>
			<polygon points="3.48,53.09 2.83,55.5 5.24,54.85 			"/>
		</g>
	</g>
</g>
<text transform="matrix(1 0 0 1 8.808 6.3643)" class="st2 st3 st4">z</text>
<g>
	<circle class="st5" cx="17.05" cy="18.54" r="4.73"/>
	<text transform="matrix(1 0 0 1 14.2674 21.29)" class="st6 st7">H</text>
</g>
<g>
	<circle class="st5" cx="17.05" cy="41.28" r="4.73"/>
	<text transform="matrix(1 0 0 1 14.2674 44.0237)" class="st6 st7">H</text>
</g>
<text transform="matrix(1 0 0 1 27.3249 12.5794)" class="st2 st6 st7">(0,0,0.7)</text>
<text transform="matrix(1 0 0 1 28.4947 36.5447)" class="st2 st6 st7">(0,0,0)</text>
<line class="st8" x1="22.35" y1="38.88" x2="27.54" y2="35.51"/>
<line class="st1" x1="22.86" y1="15.5" x2="26.57" y2="11.79"/>
</svg>
